<svg xmlns="http://www.w3.org/2000/svg" fill="none" height="1002" viewBox="0 0 2500 1002" width="2500"><path d="m0 532.126h468.75v468.754h-468.75zm507.812 0h468.75v468.754h-468.75zm507.808 0h468.76v468.754h-468.76zm507.82 0h468.75v468.754h-468.75zm507.81 0h468.75v468.754h-468.75z" fill="#00b67a"></path><path d="m234.375 848.044 71.289-18.066 29.785 91.797zm164.062-118.652h-125.488l-38.574-118.164-38.574 118.164h-125.4885l101.5625 73.242-38.574 118.164 101.562-73.242 62.5-44.922zm343.751 118.652 71.289-18.066 29.785 91.797zm164.062-118.652h-125.488l-38.574-118.164-38.575 118.164h-125.488l101.562 73.242-38.574 118.164 101.563-73.242 62.5-44.922zm343.75 118.652 71.29-18.066 29.78 91.797zm164.06-118.652h-125.49l-38.57-118.164-38.57 118.164h-125.49l101.56 73.242-38.57 118.164 101.56-73.242 62.5-44.922zm343.75 118.652 71.29-18.066 29.79 91.797zm164.07-118.652h-125.49l-38.58-118.164-38.57 118.164h-125.49l101.56 73.242-38.57 118.164 101.56-73.242 62.5-44.922zm343.75 118.652 71.28-18.066 29.79 91.797zm164.06-118.652h-125.49l-38.57-118.164-38.58 118.164h-125.49l101.57 73.242-38.58 118.164 101.56-73.242 62.5-44.922z" fill="#fff"></path><path d="m477.854 154.864h180.081v33.524h-70.905v188.981h-38.864v-188.981h-70.608zm172.368 61.411h33.227v31.151h.593c1.187-4.45 3.264-8.604 6.23-12.757 2.967-4.154 6.527-8.01 10.977-11.274 4.154-3.56 8.901-6.23 14.241-8.307 5.043-2.076 10.383-3.263 15.723-3.263 4.154 0 7.121.297 8.604.297 1.483.296 3.263.593 4.747.593v34.117c-2.374-.593-5.044-.89-7.714-1.186-2.67-.297-5.043-.594-7.713-.594-5.934 0-11.571 1.187-16.911 3.56-5.34 2.374-9.79 5.934-13.943 10.384-3.857 4.747-7.121 10.384-9.494 17.207-2.373 6.824-3.56 14.834-3.56 23.734v76.542h-35.601zm257.512 161.094h-35.007v-22.547h-.594c-4.45 8.306-10.977 14.537-19.58 19.58-8.604 5.043-17.504 7.417-26.404 7.417-21.064 0-36.491-5.044-45.984-15.724-9.494-10.383-14.241-26.404-14.241-47.468v-102.352h35.601v98.792c0 14.241 2.67 24.327 8.307 29.964 5.34 5.934 13.053 8.901 22.844 8.901 7.417 0 13.647-1.187 18.69-3.561 5.044-2.373 9.197-5.34 12.164-9.196 3.263-3.857 5.34-8.604 6.823-13.944 1.484-5.34 2.077-11.274 2.077-17.504v-93.452h35.601v161.094zm60.521-51.621c1.187 10.383 5.044 17.503 11.867 21.953 6.824 4.154 15.131 6.231 24.628 6.231 3.26 0 7.12-.297 11.27-.89 4.15-.594 8.31-1.484 11.87-2.967 3.85-1.484 6.82-3.56 9.19-6.527 2.38-2.967 3.56-6.527 3.27-10.977-.3-4.45-1.78-8.307-5.05-11.274-3.26-2.966-7.12-5.043-11.86-7.12-4.75-1.78-10.39-3.263-16.62-4.45s-12.457-2.67-18.984-4.153c-6.527-1.484-13.054-3.264-19.284-5.34-6.23-2.077-11.57-4.747-16.614-8.604-4.746-3.56-8.9-8.01-11.57-13.647-2.967-5.637-4.45-12.164-4.45-20.47 0-8.901 2.077-16.021 6.527-21.954 4.153-5.934 9.79-10.68 16.317-14.24 6.527-3.561 13.944-6.231 21.954-7.714s15.723-2.077 22.844-2.077c8.31 0 16.32.89 23.73 2.67 7.42 1.78 14.54 4.45 20.47 8.604 6.23 3.857 11.28 9.197 15.13 15.427 4.16 6.23 6.53 13.944 7.72 22.844h-37.09c-1.78-8.604-5.63-14.241-11.57-17.207-6.23-2.967-13.05-4.45-21.06-4.45-2.374 0-5.637.296-8.901.593-3.56.593-6.526 1.187-9.79 2.373-2.967 1.187-5.637 2.967-7.713 5.044-2.077 2.076-3.264 5.043-3.264 8.603 0 4.45 1.484 7.714 4.45 10.384 2.967 2.67 6.824 4.747 11.867 6.823 4.747 1.78 10.384 3.264 16.611 4.45 6.23 1.187 12.76 2.671 19.29 4.154 6.52 1.483 12.75 3.263 18.98 5.34s11.87 4.747 16.62 8.604c4.74 3.56 8.9 8.01 11.86 13.35 2.97 5.34 4.45 12.163 4.45 19.877 0 9.494-2.07 17.504-6.52 24.327-4.45 6.527-10.09 12.164-16.91 16.317-6.83 4.154-14.84 7.12-23.14 9.197-8.61 1.78-16.91 2.967-25.22 2.967-10.087 0-19.581-1.187-28.184-3.56-8.604-2.374-16.317-5.934-22.548-10.384-6.23-4.747-11.273-10.383-14.833-17.504-3.56-6.823-5.637-15.13-5.934-24.92h35.898v.297zm117.185-109.473h27v-48.654h35.6v48.357h32.04v26.404h-32.04v86.036c0 3.856.3 6.823.59 9.79.3 2.67 1.19 5.043 2.08 6.823 1.19 1.78 2.97 3.264 5.04 4.154 2.38.89 5.34 1.483 9.5 1.483 2.37 0 5.04 0 7.41-.296 2.38-.297 5.05-.594 7.42-1.187v27.59c-3.86.594-7.71.89-11.57 1.187-3.86.593-7.42.593-11.57.593-9.49 0-16.91-.89-22.55-2.67-5.63-1.78-10.08-4.45-13.35-7.713-3.26-3.56-5.34-7.714-6.52-12.757-1.19-5.044-1.78-11.274-2.08-17.801v-94.935h-27v-26.997zm119.56 0h33.53v21.954h.59c5.04-9.494 11.87-16.02 20.77-20.174 8.9-4.153 18.39-6.23 29.07-6.23 12.76 0 23.73 2.077 33.23 6.824 9.49 4.45 17.2 10.383 23.43 18.393 6.23 7.714 10.98 16.911 13.95 27.294 2.96 10.384 4.74 21.657 4.74 33.228 0 10.977-1.48 21.36-4.15 31.447-2.97 10.087-7.12 19.284-12.76 26.997-5.63 7.714-12.75 13.944-21.65 18.691-8.9 4.746-18.99 7.12-30.86 7.12-5.04 0-10.38-.593-15.42-1.483-5.05-.89-10.09-2.374-14.84-4.451-4.74-2.076-9.19-4.746-13.05-8.01-4.15-3.263-7.42-7.12-10.09-11.273h-.59v80.398h-35.6v-220.725zm124.31 80.695c0-7.12-.89-14.24-2.97-21.064-1.78-6.823-4.75-12.757-8.6-18.097-3.86-5.34-8.61-9.493-13.95-12.757-5.63-3.263-12.16-4.746-19.28-4.746-14.83 0-26.11 5.043-33.82 15.427-7.42 10.383-11.27 24.327-11.27 41.534 0 8.307.89 15.724 2.96 22.547 2.08 6.824 4.75 12.757 8.9 17.8 3.86 5.044 8.61 8.901 14.24 11.867 5.64 2.967 11.87 4.451 19.29 4.451 8.3 0 14.83-1.78 20.47-5.044 5.63-3.263 10.08-7.713 13.94-12.757 3.56-5.34 6.23-11.273 7.71-18.097 1.49-7.12 2.38-13.944 2.38-21.064zm62.6-142.106h35.6v33.524h-35.6zm0 61.411h35.6v161.094h-35.6zm67.34-61.411h35.6v222.505h-35.6zm144.18 226.955c-12.75 0-24.32-2.077-34.41-6.527s-18.39-10.087-25.51-17.504c-6.83-7.416-12.17-16.613-15.73-26.997s-5.64-21.954-5.64-34.117c0-12.164 1.78-23.438 5.64-33.821 3.56-10.384 8.9-19.284 15.73-26.997 6.82-7.417 15.42-13.351 25.51-17.504 10.09-4.154 21.66-6.527 34.41-6.527 12.76 0 24.33 2.077 34.42 6.527 10.08 4.153 18.39 10.087 25.51 17.504 6.82 7.416 12.16 16.613 15.73 26.997 3.56 10.383 5.63 21.657 5.63 33.821 0 12.46-1.78 23.734-5.63 34.117-3.86 10.384-8.91 19.284-15.73 26.997-6.82 7.417-15.43 13.351-25.51 17.504-10.09 4.154-21.36 6.527-34.42 6.527zm0-28.184c7.72 0 14.84-1.78 20.47-5.044 5.94-3.263 10.39-7.713 14.24-13.053 3.86-5.34 6.53-11.57 8.31-18.097 1.78-6.824 2.67-13.647 2.67-20.767 0-6.824-.89-13.647-2.67-20.471-1.78-6.823-4.45-12.757-8.31-18.097-3.85-5.34-8.6-9.493-14.24-12.757-5.93-3.263-12.75-5.043-20.47-5.043-7.71 0-14.83 1.78-20.47 5.043-5.93 3.264-10.38 7.714-14.24 12.757-3.85 5.34-6.52 11.274-8.3 18.097-1.78 6.824-2.67 13.647-2.67 20.471 0 7.12.89 13.943 2.67 20.767 1.78 6.823 4.45 12.757 8.3 18.097 3.86 5.34 8.61 9.79 14.24 13.053 5.94 3.561 12.76 5.044 20.47 5.044zm91.97-137.36h27v-48.654h35.6v48.357h32.04v26.404h-32.04v86.036c0 3.856.3 6.823.59 9.79.3 2.67 1.19 5.043 2.08 6.823 1.19 1.78 2.97 3.264 5.04 4.154 2.38.89 5.34 1.483 9.5 1.483 2.37 0 5.04 0 7.41-.296 2.38-.297 5.05-.594 7.42-1.187v27.59c-3.86.594-7.71.89-11.57 1.187-3.86.593-7.42.594-11.57.594-9.49 0-16.91-.89-22.55-2.671-5.63-1.78-10.08-4.45-13.35-7.713-3.26-3.56-5.34-7.714-6.52-12.757-1.19-5.044-1.78-11.274-2.08-17.8v-94.936h-27v-26.997z" fill="#fff"></path><path d="m436.32 154.864h-162.874l-50.138-154.86398135-50.434 154.86398135-162.87401-.297 131.72301 95.825-50.4345 154.864 131.7235-95.826 131.723 95.826-50.138-154.864z" fill="#00b67a"></path><path d="m315.87 285.4-11.273-35.008-81.289 59.038z" fill="#005128"></path></svg>